<svg xmlns="http://www.w3.org/2000/svg" xmlns:xlink="http://www.w3.org/1999/xlink" viewBox="0 0 129 129"><defs><style>.cls-1{fill:#bdbdbd;}.cls-2{fill:#212121;}.cls-3{fill:#f5f5f5;}.cls-4{fill:none;stroke-miterlimit:10;stroke-width:4px;stroke:url(#linear-gradient);}</style><linearGradient id="linear-gradient" x1="64.5" y1="129" x2="64.5" gradientUnits="userSpaceOnUse"><stop offset="0" stop-color="#1a1a1a"/><stop offset="0.39" stop-color="#404040"/><stop offset="0.85" stop-color="#d6d6d6"/><stop offset="1" stop-color="#e3e3e3"/></linearGradient></defs><g id="Layer_2" data-name="Layer 2"><g id="Ñëîé_2" data-name="Ñëîé 2"><path class="cls-1" d="M64.5,70A5.5,5.5,0,1,1,70,64.5,5.51,5.51,0,0,1,64.5,70Z"/><path class="cls-2" d="M64.5,99A34.48,34.48,0,1,1,99,64.5,34.52,34.52,0,0,1,64.5,99Zm0-68.77A34.29,34.29,0,1,0,98.79,64.5,34.33,34.33,0,0,0,64.5,30.21Z"/><path class="cls-2" d="M64.5,9.19A1.54,1.54,0,1,1,66,7.65,1.54,1.54,0,0,1,64.5,9.19Z"/><path class="cls-2" d="M36.84,16.6a1.53,1.53,0,1,1,.57-2.1A1.55,1.55,0,0,1,36.84,16.6Z"/><path class="cls-2" d="M16.6,36.85a1.54,1.54,0,1,1-.56-2.1A1.55,1.55,0,0,1,16.6,36.85Z"/><path class="cls-2" d="M9.19,64.5A1.54,1.54,0,1,1,7.65,63,1.54,1.54,0,0,1,9.19,64.5Z"/><path class="cls-2" d="M16.6,92.16a1.54,1.54,0,1,1-2.1-.57A1.54,1.54,0,0,1,16.6,92.16Z"/><path class="cls-2" d="M36.85,112.4a1.54,1.54,0,1,1-2.11.57A1.55,1.55,0,0,1,36.85,112.4Z"/><path class="cls-2" d="M64.5,119.81A1.54,1.54,0,1,1,63,121.35,1.55,1.55,0,0,1,64.5,119.81Z"/><path class="cls-2" d="M92.16,112.4a1.53,1.53,0,1,1-.57,2.1A1.53,1.53,0,0,1,92.16,112.4Z"/><path class="cls-2" d="M112.4,92.16a1.53,1.53,0,1,1,.56,2.1A1.55,1.55,0,0,1,112.4,92.16Z"/><path class="cls-2" d="M119.81,64.5A1.54,1.54,0,1,1,121.35,66,1.53,1.53,0,0,1,119.81,64.5Z"/><path class="cls-2" d="M112.4,36.85a1.54,1.54,0,1,1,2.1.56A1.54,1.54,0,0,1,112.4,36.85Z"/><path class="cls-2" d="M92.16,16.6A1.53,1.53,0,1,1,94.25,16,1.53,1.53,0,0,1,92.16,16.6Z"/><path class="cls-2" d="M59.57,8.17a.92.92,0,1,1,.84-1A.92.92,0,0,1,59.57,8.17Z"/><path class="cls-2" d="M54.68,8.82a.92.92,0,1,1,.75-1.07A.93.93,0,0,1,54.68,8.82Z"/><path class="cls-2" d="M49.86,9.88a.92.92,0,1,1,.65-1.12A.92.92,0,0,1,49.86,9.88Z"/><path class="cls-2" d="M45.16,11.37a.93.93,0,1,1,.55-1.18A.93.93,0,0,1,45.16,11.37Z"/><path class="cls-2" d="M40.6,13.25a.92.92,0,0,1-1.23-.44.94.94,0,0,1,.45-1.23A.92.92,0,0,1,41,12,.91.91,0,0,1,40.6,13.25Z"/><path class="cls-2" d="M32.06,18.18a.92.92,0,1,1,.22-1.28A.92.92,0,0,1,32.06,18.18Z"/><path class="cls-2" d="M28.15,21.19a.93.93,0,1,1,.11-1.3A.94.94,0,0,1,28.15,21.19Z"/><path class="cls-2" d="M24.51,24.52a.93.93,0,1,1,0-1.3A.92.92,0,0,1,24.51,24.52Z"/><path class="cls-2" d="M21.17,28.16A.92.92,0,0,1,19.76,27a.92.92,0,1,1,1.41,1.19Z"/><path class="cls-2" d="M18.17,32.07a.92.92,0,0,1-1.28.23A.93.93,0,0,1,16.66,31a.92.92,0,0,1,1.51,1.06Z"/><path class="cls-2" d="M13.24,40.61a.93.93,0,0,1-1.68-.78.93.93,0,0,1,1.68.78Z"/><path class="cls-2" d="M11.35,45.17a.93.93,0,0,1-1.74-.63.93.93,0,0,1,1.74.63Z"/><path class="cls-2" d="M9.87,49.87a.93.93,0,1,1-.66-1.12A.93.93,0,0,1,9.87,49.87Z"/><path class="cls-2" d="M8.8,54.69a.92.92,0,1,1-.75-1.07A.93.93,0,0,1,8.8,54.69Z"/><path class="cls-2" d="M8.15,59.58a.92.92,0,1,1-1.83-.16.92.92,0,0,1,1.83.16Z"/><path class="cls-2" d="M8.15,69.44a.93.93,0,0,1-.83,1,.94.94,0,0,1-1-.84.92.92,0,0,1,1.84-.16Z"/><path class="cls-2" d="M8.8,74.33a.94.94,0,0,1-.75,1.07.92.92,0,1,1,.75-1.07Z"/><path class="cls-2" d="M9.86,79.15a.92.92,0,1,1-1.12-.65A.93.93,0,0,1,9.86,79.15Z"/><path class="cls-2" d="M11.35,83.85a.93.93,0,0,1-1.74.64.93.93,0,0,1,1.74-.64Z"/><path class="cls-2" d="M13.23,88.41a.93.93,0,0,1-.44,1.23.94.94,0,0,1-1.23-.44.92.92,0,0,1,1.67-.79Z"/><path class="cls-2" d="M18.16,97a.92.92,0,1,1-1.28-.22A.92.92,0,0,1,18.16,97Z"/><path class="cls-2" d="M21.16,100.87a.91.91,0,0,1-.1,1.29.94.94,0,0,1-1.31-.1.92.92,0,0,1,.12-1.3A.91.91,0,0,1,21.16,100.87Z"/><path class="cls-2" d="M24.5,104.5a.94.94,0,0,1,0,1.31.92.92,0,0,1-1.3-1.3A.93.93,0,0,1,24.5,104.5Z"/><path class="cls-2" d="M28.13,107.84a.92.92,0,1,1-1.29.12A.91.91,0,0,1,28.13,107.84Z"/><path class="cls-2" d="M32.05,110.84a.92.92,0,1,1-1.28.23A.92.92,0,0,1,32.05,110.84Z"/><path class="cls-2" d="M40.58,115.77a.92.92,0,0,1-.77,1.68.92.92,0,0,1-.44-1.23A.91.91,0,0,1,40.58,115.77Z"/><path class="cls-2" d="M45.14,117.66a.92.92,0,1,1-1.17.55A.92.92,0,0,1,45.14,117.66Z"/><path class="cls-2" d="M49.85,119.14a.93.93,0,0,1-.47,1.79.91.91,0,0,1-.65-1.13A.92.92,0,0,1,49.85,119.14Z"/><path class="cls-2" d="M54.66,120.21a.93.93,0,0,1,.76,1.07.92.92,0,1,1-.76-1.07Z"/><path class="cls-2" d="M59.56,120.85a.93.93,0,0,1-.16,1.85.92.92,0,0,1-.84-1A.94.94,0,0,1,59.56,120.85Z"/><path class="cls-2" d="M69.41,120.86a.92.92,0,1,1,.17,1.84.92.92,0,0,1-1-.84A.93.93,0,0,1,69.41,120.86Z"/><path class="cls-2" d="M74.31,120.21a.93.93,0,0,1,.32,1.83.93.93,0,0,1-.32-1.83Z"/><path class="cls-2" d="M79.13,119.14a.93.93,0,0,1,1.12.65.92.92,0,1,1-1.77.49A.94.94,0,0,1,79.13,119.14Z"/><path class="cls-2" d="M83.83,117.66a.93.93,0,1,1-.55,1.18A.94.94,0,0,1,83.83,117.66Z"/><path class="cls-2" d="M88.39,115.77A.93.93,0,1,1,88,117,.94.94,0,0,1,88.39,115.77Z"/><path class="cls-2" d="M96.92,110.85a.93.93,0,1,1-.22,1.28A.93.93,0,0,1,96.92,110.85Z"/><path class="cls-2" d="M100.84,107.84a.93.93,0,0,1,1.19,1.42.91.91,0,0,1-1.3-.12A.94.94,0,0,1,100.84,107.84Z"/><path class="cls-2" d="M104.48,104.51a.93.93,0,0,1,1.31,1.31.91.91,0,0,1-1.3,0A.93.93,0,0,1,104.48,104.51Z"/><path class="cls-2" d="M107.81,100.87a.93.93,0,0,1,1.42,1.19.92.92,0,0,1-1.3.11A.94.94,0,0,1,107.81,100.87Z"/><path class="cls-2" d="M110.82,97A.92.92,0,1,1,112.33,98a.91.91,0,0,1-1.28.22A.92.92,0,0,1,110.82,97Z"/><path class="cls-2" d="M115.75,88.42A.92.92,0,0,1,117,88a.92.92,0,0,1-.77,1.67A.93.93,0,0,1,115.75,88.42Z"/><path class="cls-2" d="M117.63,83.86a.93.93,0,0,1,1.74.64.91.91,0,0,1-1.18.54A.94.94,0,0,1,117.63,83.86Z"/><path class="cls-2" d="M119.12,79.16a.92.92,0,1,1,1.78.48.91.91,0,0,1-1.13.64A.92.92,0,0,1,119.12,79.16Z"/><path class="cls-2" d="M120.19,74.34a.92.92,0,1,1,.75,1.07A.93.93,0,0,1,120.19,74.34Z"/><path class="cls-2" d="M120.83,69.45a.92.92,0,0,1,1.84.16.91.91,0,0,1-1,.84A.94.94,0,0,1,120.83,69.45Z"/><path class="cls-2" d="M120.83,59.59a.93.93,0,0,1,.84-1,.92.92,0,1,1,.16,1.83A.93.93,0,0,1,120.83,59.59Z"/><path class="cls-2" d="M120.19,54.7a.93.93,0,0,1,.75-1.06.91.91,0,0,1,1.07.74.92.92,0,1,1-1.82.32Z"/><path class="cls-2" d="M119.12,49.89a.93.93,0,0,1,1.79-.48.91.91,0,0,1-.66,1.12A.92.92,0,0,1,119.12,49.89Z"/><path class="cls-2" d="M117.63,45.18a.93.93,0,1,1,1.19.55A1,1,0,0,1,117.63,45.18Z"/><path class="cls-2" d="M115.75,40.62a.93.93,0,1,1,1.23.44A.93.93,0,0,1,115.75,40.62Z"/><path class="cls-2" d="M110.82,32.09A.93.93,0,0,1,112.34,31a.91.91,0,0,1-.23,1.27A.93.93,0,0,1,110.82,32.09Z"/><path class="cls-2" d="M107.81,28.17A.93.93,0,0,1,109.24,27a.92.92,0,0,1-.12,1.3A.94.94,0,0,1,107.81,28.17Z"/><path class="cls-2" d="M104.48,24.53a.94.94,0,0,1,0-1.3.92.92,0,0,1,1.31,0,.91.91,0,0,1,0,1.29A.92.92,0,0,1,104.48,24.53Z"/><path class="cls-2" d="M100.85,21.2a.93.93,0,0,1-.11-1.3.92.92,0,0,1,1.41,1.18A.93.93,0,0,1,100.85,21.2Z"/><path class="cls-2" d="M96.93,18.2a1,1,0,0,1-.22-1.29A.92.92,0,1,1,98.22,18,.94.94,0,0,1,96.93,18.2Z"/><path class="cls-2" d="M88.4,13.27a.93.93,0,0,1,.79-1.68.91.91,0,0,1,.43,1.22A.93.93,0,0,1,88.4,13.27Z"/><path class="cls-2" d="M83.84,11.38a.94.94,0,0,1-.55-1.18.92.92,0,1,1,.55,1.18Z"/><path class="cls-2" d="M79.14,9.9a.93.93,0,0,1-.65-1.13.91.91,0,1,1,1.77.46A.93.93,0,0,1,79.14,9.9Z"/><path class="cls-2" d="M74.32,8.83A.93.93,0,0,1,74.65,7a.93.93,0,0,1-.33,1.83Z"/><path class="cls-2" d="M69.43,8.18a.92.92,0,0,1,.16-1.84.92.92,0,0,1-.16,1.84Z"/><path class="cls-2" d="M20.43,63.77c0,3.93-1.58,5.89-4.72,5.89a5,5,0,0,1-1.3-.13v-1a4.63,4.63,0,0,0,1.29.17,3.2,3.2,0,0,0,2.57-1,5,5,0,0,0,.95-3.12h-.09a2.35,2.35,0,0,1-1,.86,3.43,3.43,0,0,1-1.46.3,2.77,2.77,0,0,1-3-3,3.33,3.33,0,0,1,.91-2.47,3.2,3.2,0,0,1,2.37-.9,3.32,3.32,0,0,1,1.86.52A3.41,3.41,0,0,1,20,61.4,6.15,6.15,0,0,1,20.43,63.77Zm-3.5-3.45a2,2,0,0,0-1.56.63,2.58,2.58,0,0,0-.56,1.76,2.27,2.27,0,0,0,.51,1.56,2,2,0,0,0,1.56.56,2.91,2.91,0,0,0,1.19-.25,2,2,0,0,0,.85-.7,1.54,1.54,0,0,0,.31-.92,3,3,0,0,0-.29-1.33,2.25,2.25,0,0,0-.81-1A2.12,2.12,0,0,0,16.93,60.32Z"/><path class="cls-2" d="M23.39,46.32h-1.1V39.51c0-.57,0-1.1.05-1.61l-.32.29c-.11.1-.65.52-1.6,1.28l-.6-.75,2.62-2h.95Z"/><path class="cls-2" d="M33.69,41.53a6.77,6.77,0,0,1-.81,3.7,2.76,2.76,0,0,1-2.47,1.22A2.73,2.73,0,0,1,28,45.2a6.69,6.69,0,0,1-.83-3.67A6.76,6.76,0,0,1,28,37.82a2.75,2.75,0,0,1,2.45-1.2,2.78,2.78,0,0,1,2.45,1.25A6.75,6.75,0,0,1,33.69,41.53Zm-5.4,0a6.79,6.79,0,0,0,.51,3,1.85,1.85,0,0,0,3.24,0,6.92,6.92,0,0,0,.5-3,6.92,6.92,0,0,0-.5-3,1.71,1.71,0,0,0-1.63-1,1.69,1.69,0,0,0-1.61,1A6.72,6.72,0,0,0,28.29,41.53Z"/><path class="cls-2" d="M23.4,82.56a3.4,3.4,0,0,1,2.14.61,2,2,0,0,1,.79,1.68,2.07,2.07,0,0,1-.45,1.29,3.92,3.92,0,0,1-1.45,1.06,4.9,4.9,0,0,1,1.71,1.16,2.15,2.15,0,0,1,.51,1.42,2.36,2.36,0,0,1-.86,1.9,3.58,3.58,0,0,1-2.35.71A3.86,3.86,0,0,1,21,91.72a2.28,2.28,0,0,1-.86-1.9c0-1.1.69-1.95,2.07-2.56a3.84,3.84,0,0,1-1.34-1.1,2.36,2.36,0,0,1-.4-1.32,2,2,0,0,1,.8-1.66A3.34,3.34,0,0,1,23.4,82.56Zm-2.14,7.28a1.46,1.46,0,0,0,.57,1.23,2.54,2.54,0,0,0,1.58.44A2.45,2.45,0,0,0,25,91.05a1.56,1.56,0,0,0,.56-1.26A1.49,1.49,0,0,0,25,88.66a5.56,5.56,0,0,0-1.84-1,4,4,0,0,0-1.45.92A1.77,1.77,0,0,0,21.26,89.84Zm2.13-6.4a2,2,0,0,0-1.33.4,1.28,1.28,0,0,0-.48,1,1.42,1.42,0,0,0,.4,1,4.26,4.26,0,0,0,1.47.87,3.67,3.67,0,0,0,1.37-.84,1.55,1.55,0,0,0,.41-1.06,1.29,1.29,0,0,0-.49-1A2.13,2.13,0,0,0,23.39,83.44Z"/><path class="cls-2" d="M40.82,29.51H39.73V22.69c0-.56,0-1.1.05-1.61a3.09,3.09,0,0,1-.32.29c-.11.11-.65.53-1.6,1.28l-.6-.75L39.88,20h.94Z"/><path class="cls-2" d="M48.74,29.51h-1.1V22.69c0-.56,0-1.1.06-1.61l-.32.29c-.12.11-.65.53-1.61,1.28l-.59-.75L47.79,20h1Z"/><path class="cls-2" d="M38.77,109.06l4.1-8.55H37.48v-1h6.58v.87l-4,8.68Z"/><path class="cls-2" d="M61.22,111.16a6.88,6.88,0,0,1,1.19-4.42,4.24,4.24,0,0,1,3.51-1.47,5.21,5.21,0,0,1,1.27.13v1a4,4,0,0,0-1.25-.18,3.22,3.22,0,0,0-2.55,1,5,5,0,0,0-1,3.16h.09A2.74,2.74,0,0,1,65,109.2a2.93,2.93,0,0,1,2.2.82,3,3,0,0,1,.81,2.21,3.34,3.34,0,0,1-.89,2.46,3.17,3.17,0,0,1-2.38.9,3.11,3.11,0,0,1-2.56-1.17A5.06,5.06,0,0,1,61.22,111.16Zm3.48,3.46a2.06,2.06,0,0,0,1.57-.61,2.58,2.58,0,0,0,.55-1.78,2.21,2.21,0,0,0-.52-1.56,2,2,0,0,0-1.54-.57,2.64,2.64,0,0,0-1.17.25,2.1,2.1,0,0,0-.85.7,1.61,1.61,0,0,0-.32.93,3,3,0,0,0,.29,1.31,2.33,2.33,0,0,0,.8,1A2.06,2.06,0,0,0,64.7,114.62Z"/><path class="cls-2" d="M88.09,103.21a3.69,3.69,0,0,1,2.46.75,2.52,2.52,0,0,1,.9,2.05,2.92,2.92,0,0,1-1,2.33,4,4,0,0,1-2.69.84,5.15,5.15,0,0,1-2.55-.51v-1a3.92,3.92,0,0,0,1.17.46,6.21,6.21,0,0,0,1.39.17,2.8,2.8,0,0,0,1.85-.55,1.9,1.9,0,0,0,.66-1.56c0-1.34-.85-2-2.53-2a10,10,0,0,0-1.72.19l-.58-.36.37-4.47h4.91v1h-4l-.25,2.86A8,8,0,0,1,88.09,103.21Z"/><path class="cls-2" d="M109.35,90.05h-1.47v2.19h-1.07V90.05H102v-1l4.7-6.46h1.18v6.42h1.47Zm-2.54-1V85.89c0-.63,0-1.33.07-2.12h-.06a9.74,9.74,0,0,1-.6,1l-3.09,4.25Z"/><path class="cls-2" d="M115,61.84a2.23,2.23,0,0,1-.56,1.57,2.85,2.85,0,0,1-1.59.82v.06a3,3,0,0,1,1.86.76,2.22,2.22,0,0,1,.6,1.62,2.61,2.61,0,0,1-1,2.21,4.88,4.88,0,0,1-2.93.77,8.72,8.72,0,0,1-1.51-.12,5.41,5.41,0,0,1-1.33-.42V68a7.4,7.4,0,0,0,1.44.49,6.82,6.82,0,0,0,1.44.16c1.79,0,2.69-.68,2.69-2s-1-1.83-3-1.83h-1v-1h1a3.15,3.15,0,0,0,1.92-.52,1.67,1.67,0,0,0,.71-1.44,1.38,1.38,0,0,0-.52-1.15,2.2,2.2,0,0,0-1.42-.42,4.45,4.45,0,0,0-1.28.18,6,6,0,0,0-1.38.66l-.59-.77a4.89,4.89,0,0,1,1.47-.77,5.67,5.67,0,0,1,1.75-.27,3.76,3.76,0,0,1,2.36.66A2.26,2.26,0,0,1,115,61.84Z"/><path class="cls-2" d="M108.88,46.32h-6.49v-.93l2.6-2.53a18.07,18.07,0,0,0,1.57-1.67,4.25,4.25,0,0,0,.57-1,2.83,2.83,0,0,0,.19-1,1.6,1.6,0,0,0-.48-1.22,1.9,1.9,0,0,0-1.34-.44,3.48,3.48,0,0,0-1.16.19,4.73,4.73,0,0,0-1.23.71l-.59-.74a4.64,4.64,0,0,1,3-1.09,3.23,3.23,0,0,1,2.18.68,2.35,2.35,0,0,1,.79,1.86,3.51,3.51,0,0,1-.52,1.8,11.88,11.88,0,0,1-2,2.25l-2.16,2v.05h5.08Z"/><path class="cls-2" d="M89.24,29.51h-1.1V22.69c0-.56,0-1.1.06-1.61l-.32.29c-.12.11-.65.53-1.61,1.28l-.59-.75L88.29,20h.95Z"/><path class="cls-2" d="M61.27,23.6H60.12V16.45c0-.6,0-1.16.06-1.69l-.33.3-1.7,1.34-.62-.78,2.75-2.06h1Z"/><path class="cls-2" d="M72,23.6H65.22v-1L68,20a19.55,19.55,0,0,0,1.64-1.74,4.23,4.23,0,0,0,.6-1,2.86,2.86,0,0,0,.2-1.06,1.66,1.66,0,0,0-.5-1.27,2,2,0,0,0-1.4-.48,3.87,3.87,0,0,0-1.23.21,5.28,5.28,0,0,0-1.29.75l-.62-.78a4.94,4.94,0,0,1,3.12-1.15,3.41,3.41,0,0,1,2.3.72,2.49,2.49,0,0,1,.83,1.95A3.68,3.68,0,0,1,71,18,11.86,11.86,0,0,1,69,20.34L66.7,22.49v.05H72Z"/><path class="cls-2" d="M69.42,64.5a4.92,4.92,0,1,1-4.92-4.92A4.92,4.92,0,0,1,69.42,64.5Z"/><path class="cls-3" d="M64.5,67.4a2.9,2.9,0,1,1,2.9-2.9A2.9,2.9,0,0,1,64.5,67.4Z"/><circle class="cls-2" cx="64.5" cy="64.5" r="0.26"/><circle class="cls-4" cx="64.5" cy="64.5" r="62.5"/></g></g></svg>